<svg xmlns="http://www.w3.org/2000/svg" width="410" height="404" viewBox="0 0 410 404" fill="none">
  <defs>
    <linearGradient id="paint0_linear" x1="255.53" y1="3.49" x2="41.77" y2="214.85" gradientUnits="userSpaceOnUse">
      <stop stop-color="#41D1FF" />
      <stop offset="1" stop-color="#BD34FE" />
    </linearGradient>
    <linearGradient id="paint1_linear" x1="203.16" y1="89.93" x2="214.72" y2="294.36" gradientUnits="userSpaceOnUse">
      <stop stop-color="#FFEA83" />
      <stop offset="0.08" stop-color="#FFDD35" />
      <stop offset="1" stop-color="#FFA800" />
    </linearGradient>
  </defs>
  <path d="M399.641 59.5246L215.643 388.545C211.844 395.338 202.084 395.375 198.228 388.619L10.5817 59.5563C6.38087 52.1896 12.6802 43.2665 21.0289 44.7586L205.223 77.6824C206.398 77.8924 207.601 77.8904 208.776 77.6763L389.119 44.8058C397.439 43.2894 403.768 52.1434 399.632 59.5273L399.641 59.5246Z" fill="url(#paint0_linear)" />
  <path d="M292.965 1.5744L156.801 28.2552C154.563 28.6937 152.904 30.5903 152.771 32.8687L144.395 174.33C144.198 177.739 147.258 180.392 150.629 179.658L188.42 171.585C191.983 170.813 195.172 173.632 194.443 177.219L183.18 234.363C182.422 238.089 185.907 241.315 189.532 240.279L212.947 233.514C216.577 232.477 220.065 235.709 219.297 239.437L201.398 327.164C200.278 332.677 207.486 335.748 210.492 331.003L212.5 327.836L323.014 104.35C324.807 100.762 321.68 96.6668 317.759 97.3828L278.949 104.896C275.269 105.566 272.227 102.246 273.262 98.6406L298.731 8.86161C299.767 5.25522 296.706 1.93439 292.965 2.61618L292.965 1.5744Z" fill="url(#paint1_linear)" />
</svg>
